<svg width="77" height="77" viewBox="0 0 77 77" fill="none" xmlns="http://www.w3.org/2000/svg">
<path d="M57.75 46.2V57.75H46.2V65.45H57.75V77H65.45V65.45H77V57.75H65.45V46.2H57.75ZM39.655 69.3H7.7C3.465 69.3 0 65.835 0 61.6V7.7C0 3.465 3.465 0 7.7 0H61.6C65.835 0 69.3 3.465 69.3 7.7V39.655C66.99 38.885 64.295 38.5 61.6 38.5C57.365 38.5 53.13 39.655 49.665 41.965L44.275 34.65L30.8 51.975L21.175 40.425L7.7 57.75H38.885C38.5 58.905 38.5 60.445 38.5 61.6C38.5 64.295 38.885 66.99 39.655 69.3Z" fill="#2FDDE6"/>
</svg>
