<svg width="58" height="58" viewBox="0 0 58 58" fill="none" xmlns="http://www.w3.org/2000/svg">
<path d="M15.7297 1.47717C10.6104 4.68235 7.14988 10.3402 7.14988 16.8063C7.14988 23.2724 10.6104 28.9303 15.8155 32.1354C7.03549 32.1354 0 25.2791 0 16.8063C0 12.7408 1.65724 8.84174 4.60714 5.96697C7.55704 3.0922 11.558 1.47717 15.7297 1.47717ZM48.8194 5.65784L52.9091 9.64342L8.37966 53.0388L4.28993 49.0532L48.8194 5.65784ZM31.1449 12.4305L26.9122 9.83852L22.7938 12.6256L23.995 7.88754L20.0197 4.93319L25.0246 4.59874L26.6834 0L28.5995 4.543L33.5473 4.62661L29.6863 7.77605L31.1449 12.4305ZM21.707 22.492L18.3895 20.4574L15.1864 22.6314L16.1587 18.9524L13.0414 16.6391L16.9309 16.3882L18.2179 12.7929L19.6765 16.3325L23.566 16.4161L20.5631 18.8409L21.707 22.492ZM48.6192 33.529C48.6192 37.5945 46.962 41.4936 44.0121 44.3683C41.0622 47.2431 37.0613 48.8581 32.8895 48.8581C29.4003 48.8581 26.1686 47.7433 23.566 45.8759L45.5591 24.443C47.4752 26.9793 48.6192 30.1287 48.6192 33.529ZM36.0354 51.8682L43.9575 48.663L43.2711 57.9999L36.0354 51.8682ZM48.419 44.343L51.708 36.6227L57.9999 43.702L48.419 44.343ZM51.708 30.5189L48.4476 22.7707L57.9999 23.4396L51.708 30.5189ZM21.8214 48.663L29.7435 51.8682L22.5078 57.972L21.8214 48.663Z" fill="#2FDDE6"/>
</svg>
