<svg width="58" height="58" viewBox="0 0 58 58" fill="none" xmlns="http://www.w3.org/2000/svg">
<path d="M38.6653 24.1666C38.6653 29.5074 34.3395 33.8332 28.9987 33.8332C23.6579 33.8332 19.332 29.5074 19.332 24.1666C19.332 18.8258 23.6579 14.4999 28.9987 14.4999C34.3395 14.4999 38.6653 18.8258 38.6653 24.1666Z" fill="#2FDDE6"/>
<path fill-rule="evenodd" clip-rule="evenodd" d="M28.9999 57.9999C45.0224 57.9999 57.9999 45.0224 57.9999 28.9999C57.9999 12.9775 45.0224 0 28.9999 0C12.9775 0 0 12.9775 0 28.9999C0 45.0224 12.9775 57.9999 28.9999 57.9999ZM44.1524 50.8466C51.064 46.0374 55.5832 38.0624 55.5832 28.9999C55.5832 14.3066 43.6932 2.41666 28.9999 2.41666C14.3066 2.41666 2.41666 14.3066 2.41666 28.9999C2.41666 38.0624 6.93582 46.0374 13.8475 50.8466C15.5512 47.6566 21.0491 38.6666 28.9999 38.6666C36.9507 38.6666 42.4366 47.6566 44.1524 50.8466Z" fill="#2FDDE6"/>
</svg>
